<?xml version="1.0" standalone="no"?>
<!DOCTYPE svg PUBLIC "-//W3C//DTD SVG 20010904//EN"
 "http://www.w3.org/TR/2001/REC-SVG-20010904/DTD/svg10.dtd">
<svg version="1.0" xmlns="http://www.w3.org/2000/svg"
 width="630.000000pt" height="630.000000pt" viewBox="0 0 630.000000 630.000000"
 preserveAspectRatio="xMidYMid meet">

<g transform="translate(0.000000,630.000000) scale(0.100000,-0.100000)"
fill="#000000" stroke="none">
<path d="M2001 5781 c-44 -12 -65 -53 -63 -123 4 -139 29 -249 80 -339 35 -62
139 -203 168 -228 16 -14 51 -44 78 -68 27 -25 55 -42 63 -39 8 3 12 2 8 -3
-7 -12 54 -63 66 -55 5 3 8 0 7 -7 -3 -10 28 -38 147 -133 21 -17 60 -50 86
-73 25 -24 49 -43 52 -43 3 0 29 -21 58 -47 28 -27 56 -47 60 -46 5 2 9 -1 9
-7 0 -5 29 -33 65 -62 36 -28 65 -55 65 -60 0 -4 -11 -8 -25 -8 -34 0 -170
-28 -203 -42 -15 -6 -30 -11 -34 -10 -4 1 -20 -3 -35 -10 -15 -6 -30 -12 -33
-12 -3 -1 -36 -15 -75 -31 -82 -35 -110 -51 -225 -127 -145 -96 -317 -281
-381 -408 -12 -25 -35 -66 -52 -93 -16 -26 -26 -54 -23 -63 3 -8 2 -12 -3 -9
-9 5 -19 -15 -22 -40 0 -5 -5 -15 -11 -22 -5 -7 -7 -16 -4 -22 3 -5 2 -11 -3
-13 -5 -1 -12 -20 -15 -42 -4 -21 -9 -43 -13 -50 -4 -6 -8 -18 -10 -26 -1 -8
-5 -31 -9 -50 -3 -19 -9 -46 -11 -60 -12 -69 -14 -321 -3 -371 7 -30 14 -72
17 -94 5 -44 60 -214 74 -229 5 -6 9 -16 9 -24 0 -8 10 -31 22 -51 12 -19 23
-40 24 -46 4 -24 83 -140 94 -137 6 1 9 -2 6 -7 -7 -11 22 -48 117 -148 145
-151 328 -264 537 -333 107 -35 160 -47 315 -69 l60 -9 -80 -1 c-44 -1 -97 -6
-118 -12 -33 -9 -37 -13 -31 -32 3 -12 15 -29 27 -38 19 -16 15 -20 -134 -144
-85 -71 -163 -136 -174 -146 -40 -35 -102 -86 -180 -148 -125 -101 -245 -214
-245 -232 0 -6 -15 -29 -33 -52 -18 -23 -40 -58 -49 -77 -35 -76 -47 -107 -52
-133 -2 -14 -7 -30 -10 -35 -10 -17 -21 -109 -21 -178 0 -83 16 -110 71 -120
46 -8 78 1 116 35 27 24 32 35 32 75 1 25 4 46 7 46 3 0 9 20 12 45 4 25 15
62 26 83 10 20 19 42 20 47 0 6 11 26 24 45 69 103 90 130 100 130 11 1 30 16
137 114 19 18 43 36 52 42 9 5 31 23 50 39 18 17 40 34 48 37 8 4 52 37 97 75
46 37 103 84 127 102 25 19 42 40 39 45 -4 6 -3 8 2 4 4 -4 30 11 58 34 30 26
61 43 79 44 16 1 27 0 24 -3 -2 -3 30 -33 72 -66 42 -34 81 -67 85 -74 4 -7
15 -13 22 -13 8 0 15 -5 15 -12 0 -6 3 -9 6 -5 3 3 19 -10 36 -29 17 -19 35
-34 42 -34 6 0 24 -14 40 -30 16 -16 33 -27 38 -24 5 3 7 0 6 -6 -2 -7 5 -17
15 -23 11 -7 33 -25 51 -42 17 -16 60 -52 94 -80 201 -161 255 -255 277 -480
7 -71 39 -112 97 -121 107 -18 145 66 117 257 -18 128 -93 309 -127 309 -9 0
-12 3 -9 6 22 22 -276 314 -320 314 -7 0 -13 6 -13 13 0 7 -21 29 -47 50 -27
20 -61 49 -78 64 -16 16 -59 52 -95 81 -36 29 -74 60 -85 70 -11 10 -49 41
-84 68 -35 27 -78 61 -96 76 -18 15 -43 32 -56 37 -24 10 -23 10 6 12 17 1 48
3 70 4 91 4 195 19 195 27 0 5 5 6 10 3 14 -8 120 16 120 27 0 5 4 6 10 3 5
-3 34 6 63 20 30 14 60 25 68 25 19 0 174 84 227 123 83 61 184 150 200 177
10 16 24 26 35 24 17 -2 96 -64 131 -103 10 -11 22 -18 26 -16 4 3 10 -1 13
-9 3 -7 19 -23 35 -35 29 -20 30 -20 51 -2 11 10 21 21 21 25 0 4 14 19 30 33
17 13 30 30 30 36 0 7 14 26 30 44 17 18 30 36 30 42 0 5 -15 21 -32 36 -61
48 -83 67 -122 101 -21 19 -42 34 -47 34 -5 0 -15 12 -22 27 -13 24 -12 30 13
73 26 45 83 195 95 250 3 14 12 54 20 90 18 74 21 391 6 463 -5 23 -13 62 -16
86 -11 72 -54 200 -100 291 -48 97 -84 163 -94 170 -3 3 -17 21 -30 40 -33 48
-53 70 -166 183 -54 53 -101 97 -106 97 -4 0 -21 12 -38 26 -17 14 -31 23 -31
19 0 -3 -6 -1 -12 5 -22 18 -83 54 -123 74 -22 10 -51 24 -65 31 -23 12 -119
43 -130 42 -3 0 -27 7 -55 16 -54 18 -74 22 -160 32 l-56 7 30 19 c17 10 31
23 31 28 0 5 -14 22 -30 38 l-30 30 57 50 c32 27 119 98 193 157 74 60 146
119 160 132 39 36 124 106 170 139 23 17 63 55 88 85 26 30 57 66 69 80 13 14
23 30 23 37 0 7 4 13 8 13 9 0 66 107 67 125 0 6 4 16 8 23 5 6 5 12 1 12 -3
0 0 10 8 23 21 32 28 64 43 197 4 43 1 64 -14 96 -27 55 -41 65 -93 61 -75 -4
-110 -45 -122 -139 -10 -77 -18 -113 -26 -123 -4 -5 -6 -18 -5 -27 2 -10 0
-18 -5 -18 -4 0 -10 -8 -13 -17 -10 -31 -55 -104 -79 -130 -24 -27 -159 -144
-203 -178 -49 -37 -89 -70 -116 -96 -16 -15 -30 -25 -33 -22 -2 2 -7 -5 -11
-16 -3 -12 -12 -21 -19 -21 -19 0 -77 -46 -68 -55 4 -5 2 -5 -4 -2 -6 3 -20
-1 -30 -11 -11 -9 -42 -35 -69 -57 -27 -22 -57 -47 -65 -55 -48 -47 -91 -71
-113 -64 -12 5 -25 7 -29 6 -5 -1 -7 2 -5 6 2 9 -85 85 -193 169 -78 59 -105
75 -115 65 -5 -4 -5 -2 -1 5 3 6 1 17 -6 23 -7 6 -35 31 -62 55 -27 25 -57 47
-68 50 -10 4 -18 10 -18 14 0 4 -30 32 -67 62 -98 78 -159 145 -200 219 -20
36 -39 67 -42 70 -3 3 -6 10 -6 15 -1 16 -27 157 -36 197 -16 64 -72 91 -148
69z m1294 -1606 c33 -8 83 -19 110 -26 28 -6 58 -18 68 -27 9 -8 17 -12 17 -8
0 3 11 -1 25 -10 14 -9 25 -13 25 -8 0 4 6 1 13 -8 6 -9 32 -27 57 -39 25 -12
64 -38 88 -56 23 -19 42 -31 42 -28 0 4 33 -29 73 -71 39 -43 84 -91 100 -106
15 -15 27 -32 27 -38 0 -5 5 -10 10 -10 6 0 10 -7 10 -15 0 -8 5 -15 12 -15 6
0 9 -3 5 -6 -3 -3 5 -24 19 -45 13 -21 24 -43 24 -47 0 -5 10 -22 23 -38 12
-16 21 -30 19 -32 -2 -1 6 -32 17 -67 58 -178 77 -384 47 -516 -9 -41 -18 -88
-20 -104 -2 -17 -14 -52 -25 -79 -12 -27 -20 -51 -17 -53 10 -11 -128 -236
-181 -294 -19 -21 -32 -39 -28 -39 3 0 0 -7 -9 -15 -8 -8 -18 -15 -22 -15 -4
0 -21 -15 -39 -32 -18 -18 -42 -40 -55 -48 -12 -8 -41 -29 -64 -45 -49 -36
-146 -87 -199 -104 -20 -7 -35 -16 -33 -19 2 -4 -6 -7 -17 -8 -12 0 -61 -10
-109 -21 -129 -30 -319 -30 -488 0 -43 7 -224 80 -282 113 -32 18 -58 31 -58
28 0 -3 -10 5 -22 17 -13 11 -49 42 -81 67 -68 54 -178 182 -230 267 -39 66
-118 260 -109 269 3 3 0 6 -7 6 -7 0 -10 3 -8 8 8 11 -13 115 -26 131 -10 12
-9 13 2 7 10 -6 12 -4 8 10 -14 48 -17 138 -8 191 9 50 16 94 27 178 1 11 3
21 4 23 2 1 3 5 4 10 1 4 7 16 13 27 6 11 11 25 12 30 1 19 33 97 62 148 16
29 37 67 47 86 20 40 27 50 119 149 38 41 100 97 138 126 74 55 211 139 233
142 7 1 45 14 85 27 40 14 104 30 142 36 39 6 81 13 95 15 46 8 254 -5 315
-19z"/>
<path d="M2568 3873 c-15 -7 -31 -11 -35 -10 -4 1 -18 -13 -30 -32 -35 -51
-31 -100 11 -147 l35 -39 485 -2 c267 -2 492 0 501 3 8 3 13 9 11 13 -3 4 4 8
15 8 41 3 70 60 63 123 -4 34 -43 76 -79 86 -11 3 -229 6 -484 7 -344 1 -471
-1 -493 -10z"/>
<path d="M3732 3538 c-19 -19 -14 -44 18 -91 31 -46 63 -158 61 -215 -1 -55
24 -102 53 -102 36 0 56 35 56 97 0 59 -23 158 -42 181 -7 8 -12 18 -11 21 3
12 -30 71 -54 96 -28 27 -62 32 -81 13z"/>
<path d="M2287 3491 c-39 -43 -72 -121 -64 -151 3 -11 1 -23 -4 -26 -15 -9
-11 -114 5 -130 17 -17 52 -18 62 -3 4 7 8 43 10 81 2 58 9 83 43 150 28 57
37 86 31 97 -15 29 -47 22 -83 -18z"/>
<path d="M2977 3430 c-8 -11 -17 -17 -20 -13 -11 11 -37 -64 -37 -108 0 -35 6
-48 39 -80 33 -33 45 -39 82 -39 132 0 186 171 76 239 -46 28 -120 29 -140 1z"/>
<path d="M2344 3011 c3 -4 -6 -6 -19 -3 -29 5 -90 -49 -81 -73 3 -8 1 -15 -4
-15 -15 0 -12 -47 5 -80 9 -17 32 -38 53 -48 35 -18 65 -19 522 -15 279 3 499
9 517 14 85 27 94 165 13 212 -25 15 -79 17 -520 17 -270 0 -489 -4 -486 -9z"/>
<path d="M2641 2592 c-73 -4 -128 -39 -137 -88 -7 -40 12 -114 31 -114 7 0 20
-9 30 -20 17 -19 33 -19 489 -20 318 0 482 3 503 11 32 11 78 72 68 89 -3 5
-1 11 4 14 13 8 2 43 -16 50 -8 3 -12 10 -9 15 7 10 -48 60 -67 62 -31 3 -849
4 -896 1z"/>
<path d="M2385 5781 c-43 -18 -60 -50 -60 -112 0 -51 4 -62 28 -86 l27 -28
626 0 626 0 29 34 c15 19 31 47 34 63 10 43 -12 94 -49 117 -32 20 -48 20
-637 20 -332 0 -613 -4 -624 -8z"/>
<path d="M2745 5361 c-11 -5 -25 -7 -30 -4 -6 2 -25 -10 -43 -26 -25 -23 -32
-38 -32 -66 0 -40 36 -119 50 -110 5 3 11 1 15 -4 7 -12 -18 -11 315 -11 151
0 283 0 292 0 25 0 74 55 82 90 4 21 0 44 -10 65 -17 36 -59 70 -74 60 -6 -3
-10 -2 -10 3 0 12 -527 14 -555 3z"/>
<path d="M3903 4499 c-58 -21 -30 -89 49 -120 26 -10 65 -29 85 -42 21 -13 42
-25 46 -25 18 -2 121 -121 153 -178 34 -61 74 -88 96 -66 49 49 -29 182 -187
320 -20 17 -43 32 -50 32 -7 0 -15 4 -17 8 -12 30 -143 83 -175 71z"/>
<path d="M4646 2197 c-38 -11 -49 -21 -180 -165 -64 -72 -66 -75 -66 -128 0
-30 6 -68 14 -83 8 -15 59 -67 113 -116 54 -48 134 -122 179 -164 136 -128
238 -216 247 -213 5 1 6 -1 3 -6 -2 -4 14 -23 37 -42 23 -19 50 -44 62 -56 22
-23 69 -41 100 -39 11 1 31 2 44 3 30 2 238 210 247 248 8 33 -2 108 -15 112
-6 2 -11 12 -11 22 0 10 -13 28 -29 39 -16 12 -60 51 -98 87 -37 37 -102 97
-143 133 -41 37 -106 97 -145 135 -38 37 -82 76 -96 85 -14 9 -38 31 -53 49
-16 17 -33 29 -38 25 -7 -3 -8 -1 -4 5 4 7 1 12 -8 12 -9 0 -15 5 -13 11 3 16
-43 47 -78 52 -16 3 -47 0 -69 -6z"/>
<path d="M4101 1961 c-39 -55 -23 -163 38 -252 30 -45 51 -65 176 -179 39 -34
110 -99 158 -144 49 -45 93 -80 98 -78 5 1 8 -4 7 -10 -2 -7 3 -12 9 -11 7 2
12 -1 10 -6 -1 -5 55 -59 126 -121 70 -62 127 -116 127 -121 0 -5 3 -8 8 -7 4
0 15 -2 25 -7 28 -12 67 10 67 39 0 14 -6 31 -14 38 -7 7 -51 47 -96 88 -46
41 -121 111 -167 155 -47 44 -88 81 -91 83 -4 1 -47 40 -96 87 -49 46 -93 82
-98 79 -5 -3 -7 -2 -6 3 1 4 -39 48 -89 97 -51 49 -92 91 -91 95 1 3 -4 19
-11 35 -7 18 -10 55 -7 92 3 49 1 64 -11 68 -31 12 -52 5 -72 -23z"/>
<path d="M5443 1212 c-10 -9 -25 -32 -32 -49 -7 -18 -24 -43 -38 -57 -24 -25
-92 -62 -105 -58 -5 1 -8 -1 -8 -6 0 -4 -17 -8 -37 -9 -46 -2 -68 -23 -59 -57
5 -22 13 -26 44 -28 60 -2 81 2 135 26 63 28 120 74 113 92 -3 7 3 16 13 19
22 7 46 74 36 104 -10 33 -39 44 -62 23z"/>
<path d="M2719 1113 c-63 -9 -103 -112 -71 -180 8 -18 22 -36 31 -40 20 -9
520 -15 579 -7 64 9 102 50 102 107 0 30 -7 53 -22 72 -41 52 -65 56 -341 53
-139 -1 -264 -3 -278 -5z"/>
<path d="M2460 703 c-71 -9 -99 -25 -121 -71 -37 -80 -7 -153 69 -167 20 -4
304 -6 632 -6 l595 1 32 34 c27 29 31 40 29 79 -3 50 -35 103 -70 117 -11 4
-124 9 -251 10 -453 4 -890 6 -915 3z"/>
</g>
</svg>
